<svg xmlns="http://www.w3.org/2000/svg" width="11.333" height="12.953" viewBox="0 0 11.333 12.953">
  <path id="Icon_awesome-calendar-check" data-name="Icon awesome-calendar-check" d="M11.03,4.048H.3a.3.3,0,0,1-.3-.3V2.833A1.214,1.214,0,0,1,1.214,1.619H2.429V.3a.3.3,0,0,1,.3-.3H3.744a.3.3,0,0,1,.3.3V1.619H7.286V.3a.3.3,0,0,1,.3-.3H8.6a.3.3,0,0,1,.3.3V1.619h1.214a1.214,1.214,0,0,1,1.214,1.214v.911A.3.3,0,0,1,11.03,4.048ZM.3,4.857H11.03a.3.3,0,0,1,.3.3v6.577a1.214,1.214,0,0,1-1.214,1.214h-8.9A1.214,1.214,0,0,1,0,11.738V5.161A.3.3,0,0,1,.3,4.857ZM8.735,7.284l-.713-.718a.3.3,0,0,0-.429,0L4.911,9.225,3.748,8.053a.3.3,0,0,0-.429,0L2.6,8.764a.3.3,0,0,0,0,.429L4.688,11.3a.3.3,0,0,0,.429,0L8.734,7.714a.3.3,0,0,0,0-.429Z" fill="#d91a1f"/>
</svg>
